<svg width="367" height="159" viewBox="0 0 367 159" fill="none" xmlns="http://www.w3.org/2000/svg">
<path d="M44.7065 57.8841V55.9992L33.3682 58.4061V60.2909L44.7065 57.8841ZM27.2206 74.993C26.4667 74.007 27.4816 72.1512 28.6125 71.3102C29.8594 70.3823 30.8744 70.2373 32.0633 70.0633V55.5063L46.0114 52.6935V67.5115C46.0114 69.0194 45.0544 70.3533 43.8075 71.3972C42.6766 72.3541 40.8497 73.1081 39.8638 71.8322C39.1098 70.8462 40.1248 68.9904 41.2847 68.1494C42.5026 67.2215 43.5175 67.0475 44.7065 66.9025V60.9579L33.3682 63.3937V70.6723C33.3682 72.1802 32.4113 73.5431 31.1644 74.558C30.0334 75.5149 28.2066 76.2689 27.2206 74.993Z" fill="#FBEDDD"/>
<path d="M346.849 60.43C346.849 63.6599 346.547 65.6281 344.881 67.5458C342.812 70.0187 339.027 71.9869 336.958 69.6149C334.939 67.2935 337.109 63.6094 339.885 61.9945C341.349 61.1366 342.863 60.6319 344.73 60.3291V29.3427H346.849V60.43Z" fill="#FBEDDD"/>
<path d="M95.0001 44C81.0001 49.3333 56.2001 66.6 69.0001 93C81.8001 119.4 53 143.333 37 152" stroke="#FDEFE1"/>
<path d="M242.46 50.377C242.268 59.2897 249.252 80.2264 278.725 92.672C308.197 105.118 312.187 134.548 310.498 147.708" stroke="#FDEFE1"/>
<path d="M277.994 65.4412C280.218 71.8558 291.205 84.0116 317.365 81.3177C343.525 78.6238 354.454 97.9941 356.648 108.016" stroke="#FDEFE1"/>
<path d="M27 26.5287C22.1667 25.0287 10.2 25.8287 1 41.0287" stroke="#FDEFE1"/>
<path d="M254.621 30.0149C254.022 30.0149 253.568 29.8603 253.258 29.551C252.949 29.261 252.794 28.8743 252.794 28.391C252.794 27.8691 252.939 27.3858 253.229 26.9411C253.539 26.4772 253.935 26.1099 254.418 25.8392C254.902 25.5686 255.404 25.4332 255.926 25.4332C256.158 25.4332 256.39 25.4622 256.622 25.5202C256.873 25.5589 257.115 25.6266 257.347 25.7232V12.6741L268.192 9.89027V24.6503C268.192 25.4816 268.009 26.2162 267.641 26.8541C267.293 27.4728 266.829 27.9657 266.249 28.333C265.689 28.681 265.07 28.855 264.394 28.855C263.794 28.855 263.34 28.71 263.031 28.42C262.721 28.1107 262.567 27.7144 262.567 27.2311C262.567 26.7092 262.712 26.2259 263.002 25.7812C263.311 25.3172 263.707 24.9499 264.191 24.6793C264.674 24.4086 265.177 24.2733 265.698 24.2733C265.93 24.2733 266.162 24.3023 266.394 24.3603C266.646 24.399 266.887 24.4666 267.119 24.5633V11.5722L267.612 11.9781L257.985 14.646L258.42 13.95V25.8102C258.42 26.6415 258.236 27.3761 257.869 28.0141C257.521 28.6327 257.057 29.116 256.477 29.464C255.916 29.8313 255.298 30.0149 254.621 30.0149Z" fill="#FBEDDD"/>
<path d="M176.96 14C178.002 23.8177 175.276 44.4116 156.038 48.2457C136.8 52.0798 131.418 80.4874 131.131 94.2119" stroke="#FDEFE1"/>
</svg>
