<svg width="25" height="24" viewBox="0 0 25 24" fill="none" xmlns="http://www.w3.org/2000/svg">
<path d="M8.70309 14.2048L14.7031 8.2048C14.8077 8.10015 14.932 8.01714 15.0687 7.96051C15.2054 7.90387 15.352 7.87472 15.5 7.87472C15.648 7.87472 15.7945 7.90387 15.9312 7.96051C16.068 8.01714 16.1922 8.10015 16.2968 8.2048C16.4015 8.30945 16.4845 8.43368 16.5411 8.57041C16.5978 8.70714 16.6269 8.85368 16.6269 9.00167C16.6269 9.14967 16.5978 9.29621 16.5411 9.43294C16.4845 9.56967 16.4015 9.6939 16.2968 9.79855L10.2968 15.7985C10.0855 16.0099 9.79885 16.1286 9.49997 16.1286C9.20108 16.1286 8.91444 16.0099 8.70309 15.7985C8.49175 15.5872 8.37301 15.3006 8.37301 15.0017C8.37301 14.7028 8.49175 14.4161 8.70309 14.2048ZM20.9843 3.5173C19.9284 2.46375 18.4977 1.87207 17.0061 1.87207C15.5144 1.87207 14.0837 2.46375 13.0278 3.5173L10.204 6.33824C9.99268 6.54958 9.87395 6.83623 9.87395 7.13511C9.87395 7.2831 9.9031 7.42965 9.95974 7.56638C10.0164 7.7031 10.0994 7.82734 10.204 7.93199C10.3087 8.03663 10.4329 8.11964 10.5696 8.17628C10.7064 8.23291 10.8529 8.26206 11.0009 8.26206C11.2998 8.26206 11.5864 8.14333 11.7978 7.93199L14.6168 5.11386C15.2499 4.4807 16.1085 4.12494 17.0039 4.12485C17.8992 4.12477 18.7579 4.48035 19.3911 5.11339C20.0242 5.74643 20.38 6.60506 20.3801 7.5004C20.3802 8.39574 20.0246 9.25445 19.3915 9.88761L16.5687 12.7048C16.4641 12.8094 16.3811 12.9337 16.3244 13.0704C16.2678 13.2071 16.2386 13.3537 16.2386 13.5017C16.2386 13.6497 16.2678 13.7962 16.3244 13.9329C16.3811 14.0697 16.4641 14.1939 16.5687 14.2985C16.6734 14.4032 16.7976 14.4862 16.9343 14.5428C17.0711 14.5995 17.2176 14.6286 17.3656 14.6286C17.5136 14.6286 17.6601 14.5995 17.7969 14.5428C17.9336 14.4862 18.0578 14.4032 18.1625 14.2985L20.9825 11.4804C22.0366 10.4238 22.6283 8.99216 22.6278 7.49969C22.6272 6.00721 22.0345 4.57594 20.9797 3.52011L20.9843 3.5173ZM13.205 16.0685L10.3859 18.8885C10.0724 19.202 9.70021 19.4506 9.29062 19.6202C8.88102 19.7899 8.44202 19.8771 7.9987 19.8771C7.55537 19.877 7.11639 19.7897 6.70683 19.62C6.29726 19.4503 5.92513 19.2016 5.61169 18.8881C4.97865 18.2549 4.62306 17.3962 4.62315 16.5009C4.62323 15.6055 4.97899 14.7469 5.61215 14.1139L8.43028 11.2948C8.53493 11.1902 8.61794 11.0659 8.67457 10.9292C8.73121 10.7925 8.76036 10.6459 8.76036 10.4979C8.76036 10.3499 8.73121 10.2034 8.67457 10.0667C8.61794 9.92993 8.53493 9.8057 8.43028 9.70105C8.32563 9.5964 8.2014 9.51339 8.06467 9.45676C7.92794 9.40012 7.7814 9.37097 7.6334 9.37097C7.48541 9.37097 7.33887 9.40012 7.20214 9.45676C7.06541 9.51339 6.94118 9.5964 6.83653 9.70105L4.02028 12.5229C3.49784 13.0454 3.08344 13.6657 2.80072 14.3484C2.518 15.031 2.37252 15.7627 2.37256 16.5015C2.37265 17.9938 2.96552 19.4248 4.02075 20.48C5.07598 21.5351 6.50713 22.1278 7.99936 22.1277C9.49159 22.1276 10.9227 21.5347 11.9778 20.4795L14.7959 17.6604C15.0072 17.4491 15.126 17.1624 15.126 16.8635C15.126 16.5647 15.0072 16.278 14.7959 16.0667C14.5846 15.8553 14.2979 15.7366 13.999 15.7366C13.7001 15.7366 13.4135 15.8553 13.2022 16.0667L13.205 16.0685Z" fill="white"/>
</svg>
