<svg width="10" height="14" viewBox="0 0 10 14" fill="none" xmlns="http://www.w3.org/2000/svg">
<path d="M5.53418 6.96777L0.545898 13.9355H4.49219L8.66309 8.14453C8.86608 7.8866 9.0398 7.56246 9.08203 7.17969L9.0918 7L9.08105 6.81836C9.0334 6.40324 8.83107 6.04138 8.63574 5.76562L8.63184 5.75977L4.79199 0.416016L4.49219 0H0.545898L5.53418 6.96777ZM8.0791 6.87891C8.08064 6.88677 8.08175 6.8946 8.08301 6.90234C8.08176 6.8946 8.08064 6.88677 8.0791 6.87891ZM8.0293 6.7168C8.04574 6.75822 8.05853 6.79821 8.06836 6.83691C8.05854 6.79821 8.04574 6.75822 8.0293 6.7168ZM7.93848 6.52832C7.97021 6.58367 7.99667 6.63716 8.01855 6.68848C7.99667 6.63717 7.97022 6.58368 7.93848 6.52832Z" fill="currentColor"/>
</svg>
