<svg width="20" height="20" viewBox="0 0 20 20" fill="none" xmlns="http://www.w3.org/2000/svg">
<path d="M13.1248 17.5C13.1248 17.6658 13.059 17.8247 12.9418 17.9419C12.8246 18.0592 12.6656 18.125 12.4998 18.125H7.49983C7.33407 18.125 7.1751 18.0592 7.05789 17.9419C6.94068 17.8247 6.87483 17.6658 6.87483 17.5C6.87483 17.3342 6.94068 17.1753 7.05789 17.0581C7.1751 16.9408 7.33407 16.875 7.49983 16.875H12.4998C12.6656 16.875 12.8246 16.9408 12.9418 17.0581C13.059 17.1753 13.1248 17.3342 13.1248 17.5ZM17.3287 13.7453C16.8944 12.9984 16.2498 10.8852 16.2498 8.125C16.2498 6.4674 15.5913 4.87769 14.4192 3.70558C13.2471 2.53348 11.6574 1.875 9.99983 1.875C8.34222 1.875 6.75251 2.53348 5.58041 3.70558C4.40831 4.87769 3.74983 6.4674 3.74983 8.125C3.74983 10.8859 3.10451 12.9984 2.67092 13.7453C2.56019 13.9352 2.50149 14.1509 2.50074 14.3707C2.49999 14.5905 2.5572 14.8066 2.66662 14.9973C2.77604 15.1879 2.9338 15.3463 3.12397 15.4565C3.31415 15.5667 3.53002 15.6248 3.74983 15.625H16.2498C16.4696 15.6247 16.6853 15.5665 16.8754 15.4562C17.0655 15.346 17.2231 15.1875 17.3324 14.9969C17.4418 14.8063 17.4989 14.5903 17.4981 14.3705C17.4973 14.1508 17.4386 13.9351 17.328 13.7453H17.3287Z" fill="#4D282C"/>
</svg>
