<svg width="12" height="12" viewBox="0 0 12 12" fill="none" xmlns="http://www.w3.org/2000/svg">
<path d="M10.3114 2.59361L6.56143 1.56236C6.50544 1.54696 6.4463 1.54376 6.38872 1.55304C6.33115 1.56231 6.27674 1.58379 6.22983 1.61577C6.18292 1.64775 6.14482 1.68933 6.11857 1.73721C6.09231 1.78508 6.07863 1.83792 6.07861 1.89151V6.5433C5.69457 6.22843 5.20426 6.04392 4.68964 6.02061C4.17502 5.99731 3.66726 6.13661 3.25123 6.41525C2.8352 6.69389 2.5361 7.09498 2.40391 7.55149C2.27173 8.00799 2.31448 8.49226 2.52501 8.92334C2.73554 9.35443 3.1011 9.70622 3.5606 9.91992C4.02009 10.1336 4.54567 10.1963 5.04951 10.0974C5.55335 9.99858 6.00492 9.74421 6.32874 9.37683C6.65256 9.00945 6.82901 8.55132 6.82861 8.07901V4.41592L10.0958 5.3144C10.1518 5.3298 10.2109 5.333 10.2685 5.32372C10.3261 5.31445 10.3805 5.29297 10.4274 5.26099C10.4743 5.22902 10.5124 5.18743 10.5387 5.13955C10.5649 5.09168 10.5786 5.03884 10.5786 4.98526V2.92276C10.5786 2.84885 10.5526 2.77693 10.5045 2.71764C10.4563 2.65835 10.3886 2.61486 10.3114 2.59361Z" fill="#412716"/>
</svg>
