<svg width="9" height="14" viewBox="0 0 9 14" fill="none" xmlns="http://www.w3.org/2000/svg">
<path d="M3.55762 6.96777L8.5459 13.9355H4.59961L0.428711 8.14453C0.225712 7.8866 0.0519977 7.56246 0.00976562 7.17969L0 7L0.0107422 6.81836C0.0583951 6.40324 0.26073 6.04138 0.456055 5.76562L0.459961 5.75977L4.2998 0.416016L4.59961 0H8.5459L3.55762 6.96777ZM1.0127 6.87891C1.01115 6.88677 1.01004 6.8946 1.00879 6.90234C1.01004 6.8946 1.01116 6.88677 1.0127 6.87891ZM1.0625 6.7168C1.04605 6.75822 1.03327 6.79821 1.02344 6.83691C1.03326 6.79821 1.04605 6.75822 1.0625 6.7168ZM1.15332 6.52832C1.12159 6.58367 1.09513 6.63716 1.07324 6.68848C1.09512 6.63717 1.12158 6.58368 1.15332 6.52832Z" fill="currentColor"/>
</svg>
