<svg width="54" height="78" viewBox="0 0 54 78" fill="none" xmlns="http://www.w3.org/2000/svg">
<path d="M20.3323 67.402V40.3548H17.974L15.9753 39.9386V76.9726L20.3323 67.402Z" fill="black" fill-opacity="0.7" stroke="black" stroke-width="0.363078"/>
<g clip-path="url(#clip0_1286_725)">
<path d="M26.8693 40.5635C12.0806 40.5635 0.0919151 34.7403 0.0919151 27.557C0.0919151 20.3736 12.0806 14.5504 26.8693 14.5504C41.6581 14.5504 53.6467 20.3736 53.6467 27.557C53.6467 34.7403 41.6581 40.5635 26.8693 40.5635Z" fill="black" fill-opacity="0.7" stroke="black" stroke-width="0.363078" stroke-miterlimit="10"/>
<path d="M16.3521 23.8064L18.0926 3.65731C18.0926 1.69452 22.0202 0.102295 26.866 0.102295C31.7117 0.102295 35.6393 1.69452 35.6393 3.65731L37.3798 23.8064C37.4011 23.9368 37.4153 24.0671 37.4153 24.2014C37.4153 27.0316 32.6936 29.3242 26.866 29.3242C21.0383 29.3242 16.3166 27.0316 16.3166 24.2014C16.3166 24.0711 16.3308 23.9368 16.3521 23.8064Z" fill="black" fill-opacity="0.6" stroke="black" stroke-width="0.363078" stroke-miterlimit="10"/>
</g>
<defs>
<clipPath id="clip0_1286_725">
<rect width="53.7356" height="40.6648" fill="white" transform="matrix(-1 0 0 1 53.7356 0)"/>
</clipPath>
</defs>
</svg>
