<svg width="31" height="32" viewBox="0 0 31 32" fill="none" xmlns="http://www.w3.org/2000/svg">
<path d="M1.98526 19.3108C2.09699 19.8857 2.24094 20.4513 2.41711 21.0031C2.21623 20.9421 2.02286 20.8764 1.83917 20.805C0.184819 20.1725 1.02273 19.6426 1.98526 19.3097V19.3108Z" fill="#4B3B33"/>
<path d="M27.8802 16.3606C27.8802 16.8214 27.8587 17.2753 27.8168 17.7246C27.2431 17.8801 26.6609 17.9987 26.0754 18.099C26.1539 17.531 26.1936 16.9504 26.1936 16.3606C26.1936 9.77117 21.194 4.40978 15.0482 4.40978C8.90245 4.40978 3.90288 9.77117 3.90288 16.3606C3.90288 16.9504 3.94263 17.531 4.01998 18.0978C3.43558 17.9976 2.85334 17.8801 2.27969 17.7246C2.23779 17.2764 2.21631 16.8214 2.21631 16.3617C2.21631 8.77469 7.97215 2.60229 15.0472 2.60229C22.1222 2.60229 27.878 8.77469 27.878 16.3617L27.8802 16.3606Z" fill="#4B3B33"/>
<path d="M4.14566 18.8419C4.33258 19.7889 4.62477 20.6955 5.00828 21.5468C4.31431 21.45 3.64505 21.3279 3.02843 21.1736C2.80069 20.5238 2.61807 19.8499 2.48486 19.1576C2.6836 19.1023 2.87052 19.0562 3.01984 19.0216L4.14566 18.8419Z" fill="#4B3B33"/>
<path d="M7.81094 21.8188C7.08474 21.7716 6.34458 21.7094 5.62054 21.6241C5.18547 20.7325 4.85782 19.7706 4.65479 18.7603L6.41978 18.478C6.67975 19.6968 7.15994 20.8281 7.81094 21.8188Z" fill="#4B3B33"/>
<path d="M15.0484 10.0316C11.7945 10.0316 9.14648 12.8713 9.14648 16.3607C9.14648 18.826 10.4678 20.9675 12.3918 22.0112C14.088 22.0631 15.8434 22.0919 17.6062 22.0642C19.5828 21.0412 20.9504 18.8697 20.9504 16.3607C20.9504 12.8713 18.3023 10.0316 15.0484 10.0316ZM15.0484 20.706C12.8097 20.706 10.9963 18.7603 10.9963 16.3607C10.9963 13.9611 12.8097 12.0154 15.0484 12.0154C17.2872 12.0154 19.1005 13.9611 19.1005 16.3607C19.1005 18.7603 17.2861 20.706 15.0484 20.706Z" fill="#4B3B33"/>
<path d="M23.3854 16.3606C23.3854 18.4458 22.7161 20.3684 21.5957 21.8902C20.6256 21.9628 19.647 22.0112 18.6673 22.04C20.356 20.7993 21.4657 18.7165 21.4657 16.3606C21.4657 12.5671 18.5878 9.47976 15.0492 9.47976C11.5106 9.47976 8.63267 12.566 8.63267 16.3606C8.63267 18.6762 9.70478 20.729 11.3452 21.9766C11.3215 21.9766 11.2979 21.9743 11.2743 21.9743C10.4471 21.9444 9.4867 21.9144 8.47906 21.8591C7.37258 20.3419 6.71191 18.4319 6.71191 16.3606C6.71191 11.4312 10.4514 7.42114 15.0481 7.42114C19.6448 7.42114 23.3843 11.4312 23.3843 16.3606H23.3854Z" fill="#4B3B33"/>
<path d="M4.55391 18.1842C4.46475 17.5898 4.41748 16.9815 4.41748 16.3606C4.41748 10.0753 9.18608 4.96045 15.0483 4.96045C20.9105 4.96045 25.6791 10.0753 25.6791 16.3606C25.6791 16.9827 25.6329 17.5932 25.5426 18.1877C24.9206 18.2867 24.2986 18.3708 23.6799 18.4665C23.8238 17.7891 23.899 17.0841 23.899 16.3618C23.899 11.1282 19.9286 6.87046 15.0483 6.87046C10.1679 6.87046 6.19751 11.1282 6.19751 16.3618C6.19751 17.0841 6.27271 17.7891 6.41666 18.4653C5.79789 18.3674 5.17483 18.2833 4.55391 18.1854V18.1842Z" fill="#4B3B33"/>
<path d="M25.4428 18.7556C25.243 19.7532 24.9218 20.7036 24.4942 21.586C23.7648 21.6863 23.0236 21.7681 22.2759 21.8337C22.9322 20.8384 23.4157 19.7025 23.6767 18.4768L25.4417 18.7567L25.4428 18.7556Z" fill="#4B3B33"/>
<path d="M27.689 20.9732C27.4849 21.032 27.2798 21.0838 27.0842 21.1299C26.7587 21.2059 26.4622 21.2647 26.2538 21.3038C25.8768 21.3741 25.4954 21.4386 25.1108 21.4974C25.4836 20.6599 25.7694 19.7682 25.9531 18.8374L27.0413 19.009C27.2293 19.0678 27.4216 19.1104 27.6128 19.1577C27.7299 19.1865 27.847 19.2176 27.9608 19.2544C28.0135 19.2717 28.064 19.2878 28.1123 19.304C30.1706 20.0078 28.9717 20.608 27.689 20.9732Z" fill="#4B3B33"/>
<path d="M30.3491 16.1988C30.3352 16.3854 30.2374 16.549 30.0924 16.6942C29.6863 17.0985 28.9043 17.3485 28.5132 17.4729C28.5003 17.4764 28.4885 17.481 28.4756 17.4844C28.5068 17.0847 28.5218 16.6815 28.5218 16.276C28.5218 12.4537 27.1339 8.85944 24.6137 6.15571C22.0935 3.45312 18.7418 1.96474 15.1764 1.96474C11.611 1.96474 8.26038 3.45312 5.73911 6.15571C3.21892 8.85829 1.83098 12.4525 1.83098 16.276C1.83098 16.6815 1.8471 17.0858 1.87825 17.4856C1.36368 17.3278 0.640713 17.064 0.261502 16.6723C0.111107 16.5168 0.0144242 16.3417 0.00797872 16.1435C-0.161753 11.5056 2.39711 6.37113 5.71977 3.53607C15.1786 -4.53252 29.4392 2.0281 30.3008 14.9166C30.3212 15.2162 30.3695 15.9373 30.3481 16.1977L30.3491 16.1988Z" fill="#4B3B33"/>
<path d="M15.0482 22.6897C14.7291 22.6897 14.4165 22.662 14.1104 22.609C14.7237 22.6044 15.3371 22.6067 15.9505 22.6148C15.6562 22.6643 15.3543 22.6897 15.0471 22.6897H15.0482Z" fill="#4B3B33"/>
<path d="M3.54078 23.6205C3.75134 24.0041 3.98015 24.3785 4.22615 24.7414C4.06179 24.6976 3.90173 24.6504 3.74489 24.5997C2.56429 24.2161 2.84252 23.8797 3.54078 23.6205Z" fill="#4B3B33"/>
<path d="M7.63517 25.2771C6.72635 25.2022 5.83365 25.0927 5.01399 24.9257C4.66701 24.4603 4.34903 23.9695 4.06006 23.458C4.70783 23.2852 5.46948 23.1631 5.85298 23.1067C6.36433 23.905 6.96269 24.6342 7.63409 25.2771H7.63517Z" fill="#4B3B33"/>
<path d="M12.5474 25.466C11.3345 25.4372 9.91866 25.4211 8.5028 25.337C7.71645 24.6757 7.01711 23.8981 6.43164 23.0284C7.1299 22.9408 7.84643 22.8717 8.56833 22.8187C9.63613 24.0502 11.0047 24.9787 12.5474 25.4672V25.466Z" fill="#4B3B33"/>
<path d="M20.8352 22.7899C19.3356 24.3439 17.2945 25.3001 15.0493 25.3001C12.8041 25.3001 10.7469 24.3358 9.24512 22.7703C10.2614 22.7058 11.2797 22.6654 12.2616 22.639C12.3153 22.6378 12.368 22.6367 12.4206 22.6355C13.2231 23.0237 14.1136 23.2403 15.0504 23.2403C15.9871 23.2403 16.853 23.0295 17.6468 22.6505C18.4482 22.6735 19.2485 22.7069 20.0456 22.7495C20.3045 22.7634 20.5688 22.776 20.8363 22.7887L20.8352 22.7899Z" fill="#4B3B33"/>
<path d="M23.6963 22.9859C23.0926 23.8902 22.3685 24.6954 21.5499 25.3763C20.1588 25.48 18.7375 25.5237 17.3335 25.5329C18.9621 25.0664 20.408 24.1125 21.5241 22.8269C22.2407 22.8649 22.9733 22.9122 23.6963 22.987V22.9859Z" fill="#4B3B33"/>
<path d="M26.084 23.3751C25.7778 23.9281 25.4362 24.4557 25.0624 24.9545C24.2127 25.1019 23.3328 25.2148 22.438 25.2989C23.1352 24.6365 23.755 23.8808 24.2793 23.0514C24.898 23.1309 25.506 23.2346 26.084 23.3751Z" fill="#4B3B33"/>
<path d="M25.8218 24.8117C26.1075 24.3947 26.3707 23.9638 26.6114 23.5192C28.4848 24.0952 26.9422 24.5732 25.8218 24.8117Z" fill="#4B3B33"/>
<path d="M15.0481 27.7607C13.6591 27.7607 12.3324 27.4738 11.1152 26.952C11.8962 26.9301 12.6428 26.9232 13.2723 26.9036C14.9396 26.8541 17.0956 26.7849 19.1818 26.8633C17.9109 27.4404 16.5133 27.7607 15.0481 27.7607Z" fill="#4B3B33"/>
<path d="M6.66165 27.4948C7.07309 27.853 7.50172 28.1825 7.94538 28.482C7.31587 28.3749 6.69925 28.2205 6.11163 27.9959C6.01817 27.686 6.37053 27.5927 6.5886 27.5189C6.61331 27.5109 6.63694 27.5028 6.66165 27.4948Z" fill="#4B3B33"/>
<path d="M22.9064 27.2309C22.2232 27.8 21.4841 28.2976 20.701 28.7112C20.2563 28.7481 19.8889 28.7723 19.6837 28.7849C17.113 28.9312 14.5079 28.884 11.9394 28.7826C11.0725 28.7481 10.1723 28.7262 9.27848 28.6478C8.58021 28.27 7.91848 27.8253 7.30078 27.3207C8.09573 27.1433 9.0314 27.05 9.97244 26.9982C11.4957 27.8368 13.2221 28.3115 15.0494 28.3115C16.8767 28.3115 18.7093 27.808 20.267 26.9187C21.1994 26.9798 22.0975 27.0777 22.9075 27.2297L22.9064 27.2309Z" fill="#4B3B33"/>
<path d="M24.4854 28.0339C24.2093 28.2747 23.0996 28.4579 21.9985 28.5846C22.5475 28.2252 23.0739 27.8208 23.5745 27.3727C23.6797 27.398 23.7829 27.4245 23.8849 27.4522C24.1417 27.5224 24.8775 27.6929 24.4865 28.0339H24.4854Z" fill="#4B3B33"/>
<path d="M19.8758 31.0681C19.7286 31.1684 19.4847 31.2064 19.3096 31.2375C17.5146 31.5497 15.3263 31.4725 13.5119 31.3769C13.1767 31.3584 11.069 31.3078 11.0024 31.0186C11.0497 30.7997 11.4139 30.7824 11.5944 30.7467C12.1143 30.6454 12.6815 30.5832 13.2691 30.5474C14.4057 30.4795 15.6185 30.5129 16.7035 30.5636C16.9366 30.5751 17.1633 30.5866 17.3824 30.5981C18.244 30.6431 19.1227 30.6223 19.952 30.9241C19.981 31.0727 19.9359 31.0278 19.8747 31.0693L19.8758 31.0681Z" fill="#4B3B33"/>
</svg>
