<svg width="79" height="30" viewBox="0 0 79 30" fill="none" xmlns="http://www.w3.org/2000/svg">
<g clip-path="url(#clip0_706_4965)">
<path d="M3.00606 18.4135C3.11895 18.9616 3.2644 19.5009 3.44242 20.0271C3.23944 19.9689 3.04405 19.9063 2.85844 19.8382C1.18682 19.2351 2.03348 18.7298 3.00606 18.4124V18.4135Z" fill="#E4D8C8"/>
<path d="M29.1712 15.6002C29.1712 16.0396 29.1495 16.4724 29.1072 16.9008C28.5276 17.0491 27.9392 17.1622 27.3477 17.2578C27.4269 16.7162 27.4671 16.1626 27.4671 15.6002C27.4671 9.31703 22.4153 4.2048 16.2053 4.2048C9.99538 4.2048 4.94362 9.31703 4.94362 15.6002C4.94362 16.1626 4.98378 16.7162 5.06194 17.2567C4.47144 17.1611 3.88312 17.0491 3.30348 16.9008C3.26115 16.4735 3.23944 16.0396 3.23944 15.6013C3.23944 8.36686 9.05537 2.48132 16.2043 2.48132C23.3531 2.48132 29.1691 8.36686 29.1691 15.6013L29.1712 15.6002Z" fill="#E4D8C8"/>
<path d="M5.18894 17.9663C5.37781 18.8692 5.67305 19.7337 6.06056 20.5455C5.35935 20.4532 4.68311 20.3368 4.06005 20.1896C3.82993 19.5701 3.6454 18.9275 3.5108 18.2673C3.71161 18.2146 3.90049 18.1706 4.05137 18.1377L5.18894 17.9663Z" fill="#E4D8C8"/>
<path d="M8.89255 20.8049C8.15877 20.7599 7.41089 20.7006 6.67928 20.6193C6.23967 19.7691 5.9086 18.8519 5.70345 17.8885L7.48687 17.6194C7.74955 18.7816 8.23476 19.8602 8.89255 20.8049Z" fill="#E4D8C8"/>
<path d="M16.2053 9.56543C12.9175 9.56543 10.2418 12.2731 10.2418 15.6004C10.2418 17.9511 11.5769 19.9931 13.521 20.9883C15.2349 21.0377 17.0086 21.0652 18.7898 21.0388C20.7871 20.0634 22.1689 17.9928 22.1689 15.6004C22.1689 12.2731 19.4932 9.56543 16.2053 9.56543ZM16.2053 19.7437C13.9432 19.7437 12.111 17.8885 12.111 15.6004C12.111 13.3123 13.9432 11.457 16.2053 11.457C18.4674 11.457 20.2997 13.3123 20.2997 15.6004C20.2997 17.8885 18.4664 19.7437 16.2053 19.7437Z" fill="#E4D8C8"/>
<path d="M24.6296 15.6003C24.6296 17.5885 23.9534 19.4219 22.8213 20.8729C21.8411 20.9421 20.8522 20.9883 19.8623 21.0157C21.5686 19.8327 22.6899 17.8467 22.6899 15.6003C22.6899 11.9831 19.782 9.03924 16.2064 9.03924C12.6309 9.03924 9.72293 11.982 9.72293 15.6003C9.72293 17.8082 10.8062 19.7657 12.4637 20.9553C12.4399 20.9553 12.416 20.9531 12.3921 20.9531C11.5563 20.9246 10.5859 20.896 9.56771 20.8433C8.44968 19.3966 7.78212 17.5754 7.78212 15.6003C7.78212 10.9 11.5606 7.07629 16.2053 7.07629C20.8501 7.07629 24.6286 10.9 24.6286 15.6003H24.6296Z" fill="#E4D8C8"/>
<path d="M5.60141 17.3391C5.51132 16.7723 5.46356 16.1923 5.46356 15.6002C5.46356 9.60702 10.2819 4.72986 16.2053 4.72986C22.1287 4.72986 26.9471 9.60702 26.9471 15.6002C26.9471 16.1934 26.9004 16.7756 26.8093 17.3424C26.1808 17.4368 25.5523 17.517 24.9271 17.6082C25.0725 16.9623 25.1485 16.29 25.1485 15.6013C25.1485 10.611 21.1366 6.5511 16.2053 6.5511C11.2741 6.5511 7.26218 10.611 7.26218 15.6013C7.26218 16.29 7.33816 16.9623 7.48361 17.6071C6.85838 17.5137 6.22881 17.4335 5.60141 17.3402V17.3391Z" fill="#E4D8C8"/>
<path d="M26.7083 17.884C26.5064 18.8353 26.1819 19.7415 25.7499 20.5829C25.0128 20.6785 24.2638 20.7565 23.5084 20.8191C24.1716 19.87 24.66 18.7869 24.9238 17.6182L26.7072 17.8851L26.7083 17.884Z" fill="#E4D8C8"/>
<path d="M28.978 19.9986C28.7718 20.0546 28.5645 20.104 28.3669 20.148C28.038 20.2205 27.7384 20.2765 27.5278 20.3138C27.1468 20.3808 26.7615 20.4424 26.3729 20.4984C26.7496 19.6998 27.0383 18.8496 27.2239 17.962L28.3235 18.1257C28.5135 18.1817 28.7077 18.2224 28.901 18.2674C29.0193 18.2949 29.1376 18.3245 29.2527 18.3597C29.3058 18.3762 29.3569 18.3915 29.4057 18.4069C31.4855 19.0781 30.2741 19.6504 28.978 19.9986Z" fill="#E4D8C8"/>
<path d="M31.5365 15.5267C31.5224 15.7046 31.4236 15.8606 31.277 15.999C30.8667 16.3846 30.0765 16.6229 29.6814 16.7416C29.6684 16.7449 29.6564 16.7493 29.6434 16.7526C29.6749 16.3714 29.6901 15.9869 29.6901 15.6003C29.6901 11.9556 28.2877 8.52839 25.7412 5.95031C23.1947 3.37333 19.808 1.95412 16.2053 1.95412C12.6027 1.95412 9.2171 3.37333 6.66951 5.95031C4.12301 8.5273 2.72058 11.9545 2.72058 15.6003C2.72058 15.9869 2.73687 16.3725 2.76834 16.7537C2.24841 16.6032 1.51789 16.3516 1.13472 15.9781C0.982752 15.8298 0.88506 15.6629 0.878547 15.4739C0.707044 11.0516 3.29263 6.15572 6.64997 3.45242C16.2075 -4.24119 30.6171 2.01454 31.4876 14.3041C31.5082 14.5897 31.5571 15.2773 31.5354 15.5256L31.5365 15.5267Z" fill="#E4D8C8"/>
<path d="M16.2053 21.6353C15.883 21.6353 15.5671 21.6089 15.2577 21.5584C15.8775 21.554 16.4973 21.5562 17.1171 21.5639C16.8197 21.6111 16.5147 21.6353 16.2043 21.6353H16.2053Z" fill="#E4D8C8"/>
<path d="M4.57782 22.5227C4.79057 22.8885 5.02177 23.2455 5.27035 23.5915C5.10427 23.5498 4.94253 23.5047 4.78406 23.4564C3.59113 23.0906 3.87226 22.7699 4.57782 22.5227Z" fill="#E4D8C8"/>
<path d="M8.71453 24.1023C7.79623 24.0309 6.8942 23.9266 6.06599 23.7673C5.71539 23.3235 5.39409 22.8556 5.1021 22.3679C5.75663 22.2031 6.52623 22.0867 6.91374 22.0328C7.43042 22.7941 8.03503 23.4894 8.71345 24.1023H8.71453Z" fill="#E4D8C8"/>
<path d="M13.6784 24.2826C12.4529 24.2551 11.0222 24.2397 9.59159 24.1595C8.79703 23.529 8.09039 22.7876 7.49881 21.9582C8.20436 21.8747 8.92837 21.8088 9.6578 21.7583C10.7368 22.9326 12.1196 23.8179 13.6784 24.2837V24.2826Z" fill="#E4D8C8"/>
<path d="M22.0527 21.7307C20.5374 23.2125 18.475 24.1242 16.2064 24.1242C13.9378 24.1242 11.8591 23.2048 10.3416 21.712C11.3685 21.6505 12.3975 21.6121 13.3896 21.5868C13.4439 21.5857 13.4971 21.5846 13.5503 21.5835C14.3611 21.9537 15.261 22.1602 16.2075 22.1602C17.154 22.1602 18.0289 21.9592 18.8311 21.5978C19.6408 21.6197 20.4495 21.6516 21.2549 21.6922C21.5165 21.7054 21.7836 21.7175 22.0538 21.7296L22.0527 21.7307Z" fill="#E4D8C8"/>
<path d="M24.9433 21.9176C24.3333 22.7799 23.6017 23.5477 22.7746 24.1969C21.3689 24.2957 19.9328 24.3375 18.5141 24.3463C20.1597 23.9014 21.6207 22.9919 22.7485 21.766C23.4725 21.8022 24.2128 21.8473 24.9433 21.9187V21.9176Z" fill="#E4D8C8"/>
<path d="M27.3563 22.2888C27.047 22.816 26.7018 23.3191 26.3241 23.7948C25.4655 23.9354 24.5765 24.043 23.6723 24.1232C24.3767 23.4916 25.003 22.771 25.5328 21.9801C26.158 22.0559 26.7724 22.1548 27.3563 22.2888Z" fill="#E4D8C8"/>
<path d="M27.0915 23.6586C27.3802 23.261 27.6462 22.8502 27.8893 22.4261C29.7824 22.9754 28.2236 23.4312 27.0915 23.6586Z" fill="#E4D8C8"/>
<path d="M16.2053 26.4706C14.8018 26.4706 13.4613 26.1971 12.2314 25.6995C13.0206 25.6786 13.775 25.672 14.4111 25.6534C16.0957 25.6061 18.2742 25.5402 20.3822 25.6149C19.0981 26.1652 17.6859 26.4706 16.2053 26.4706Z" fill="#E4D8C8"/>
<path d="M7.7311 26.2169C8.14683 26.5585 8.57993 26.8727 9.02823 27.1583C8.39215 27.0561 7.76909 26.9089 7.17534 26.6947C7.0809 26.3993 7.43694 26.3103 7.65729 26.24C7.68225 26.2323 7.70613 26.2246 7.7311 26.2169Z" fill="#E4D8C8"/>
<path d="M24.1455 25.9654C23.4552 26.508 22.7084 26.9826 21.9171 27.3769C21.4677 27.4121 21.0965 27.4351 20.8891 27.4472C18.2916 27.5867 15.6593 27.5417 13.064 27.445C12.188 27.4121 11.2784 27.3912 10.3753 27.3165C9.66974 26.9562 9.0011 26.5322 8.37695 26.0511C9.1802 25.8819 10.1256 25.7929 11.0765 25.7435C12.6157 26.5432 14.36 26.9958 16.2064 26.9958C18.0528 26.9958 19.9046 26.5157 21.4785 25.6677C22.4207 25.7259 23.3282 25.8193 24.1466 25.9643L24.1455 25.9654Z" fill="#E4D8C8"/>
<path d="M25.7412 26.731C25.4622 26.9606 24.3409 27.1352 23.2283 27.256C23.783 26.9133 24.3149 26.5278 24.8207 26.1005C24.9271 26.1246 25.0313 26.1499 25.1344 26.1763C25.3938 26.2433 26.1374 26.4058 25.7423 26.731H25.7412Z" fill="#E4D8C8"/>
<path d="M21.0834 29.6243C20.9347 29.7199 20.6883 29.7561 20.5114 29.7858C18.6976 30.0835 16.4865 30.0099 14.6531 29.9187C14.3145 29.9011 12.1848 29.8528 12.1175 29.5771C12.1652 29.3684 12.5332 29.3519 12.7156 29.3178C13.2409 29.2212 13.8141 29.1619 14.4078 29.1278C15.5562 29.063 16.7817 29.0949 17.878 29.1432C18.1136 29.1542 18.3426 29.1652 18.5641 29.1761C19.4346 29.219 20.3225 29.1992 21.1605 29.487C21.1898 29.6287 21.1442 29.5859 21.0823 29.6254L21.0834 29.6243Z" fill="#E4D8C8"/>
<path d="M34.9362 6.23706V5.68563H40.3146V4.55202C37.2352 4.44767 35.8642 3.91052 35.8642 2.32984C35.8642 0.272428 38.3988 0.0637207 41.7442 0.0637207C45.0896 0.0637207 47.5949 0.272428 47.5949 2.32984C47.5949 3.95556 46.1805 4.46195 43.0261 4.55202V5.68563H48.5229V6.23706H34.9362ZM36.1443 7.35529H47.2551V9.32373C46.6505 9.11502 45.9146 9.23475 45.6486 9.89053H39.0468V11.3669C39.0468 11.4866 39.0761 11.6656 39.3269 11.6656H45.2655C45.8397 11.6656 45.9428 11.3822 45.869 10.9198C45.8104 10.5474 45.9721 9.7719 46.7536 9.7719C47.5352 9.7719 47.7848 10.2794 47.8 10.9352C47.8141 11.5613 47.343 12.2171 45.5303 12.2171H37.042C36.4677 12.2171 36.1877 11.9633 36.1877 11.3822V9.3391H44.396V7.90781H36.1432V7.35639L36.1443 7.35529ZM41.0213 4.01488H42.4508C43.748 4.01488 44.5143 3.6425 44.5143 2.52317V2.12003C44.5143 1.10616 43.748 0.628328 42.4508 0.628328H41.0213C39.7241 0.628328 38.9285 1.00071 38.9285 2.12003V2.52317C38.9285 3.6414 39.7241 4.01488 41.0213 4.01488Z" fill="#E4D8C8" stroke="#E4D8C8" stroke-width="0.250685" stroke-miterlimit="10"/>
<path d="M49.5683 1.59936H56.1994V2.13651H49.5683V1.59936ZM53.0602 2.83732C55.0933 2.83732 56.2873 3.4931 56.2873 7.35528C56.2873 11.2175 55.1085 11.8293 53.0602 11.8293C51.0119 11.8293 49.7452 11.2175 49.7452 7.35528C49.7452 3.4931 51.0423 2.83732 53.0602 2.83732ZM50.7764 0.032959H55.1237V0.570105H50.7764V0.032959ZM52.8985 11.2922H53.223C53.7679 11.2922 53.9601 10.889 53.9601 10.2926V4.37187C53.9601 3.77541 53.769 3.37227 53.223 3.37227H52.8985C52.3384 3.37227 52.1614 3.77541 52.1614 4.37187V10.2926C52.1614 10.889 52.3384 11.2922 52.8985 11.2922ZM63.3765 0.0483374V0.48113H62.7426V11.0395C62.7426 11.3229 62.9347 11.368 63.1409 11.368H63.4655V11.8304H56.4067V11.368H56.7606C57.0406 11.368 57.0699 11.1592 57.0699 11.0252V0.48113H56.4957V0.0483374H59.3982V4.23896H60.4153V0.48113H59.8552V0.0483374H63.3776H63.3765ZM59.7955 11.3669H60.1494C60.3849 11.3372 60.4142 11.1428 60.4142 11.0241V4.92549H59.3972V11.0988C59.4113 11.3229 59.6034 11.3669 59.7944 11.3669H59.7955Z" fill="#E4D8C8" stroke="#E4D8C8" stroke-width="0.250685" stroke-miterlimit="10"/>
<path d="M64.4077 11.0538V10.5024H73.5885V11.0538H64.4077ZM68.8722 0.272425C71.8485 0.272425 73.0132 0.823852 73.0132 4.12033C73.0132 7.4168 71.8637 7.92319 68.8722 7.92319C65.8806 7.92319 64.5987 7.38604 64.5987 4.12033C64.5987 0.854608 65.8806 0.272425 68.8722 0.272425ZM68.3121 7.32563H69.4019C70.3007 7.32563 70.4928 6.66985 70.4928 5.87896V2.22548C70.4928 1.43459 70.3007 0.778815 69.4019 0.778815H68.3121C67.4133 0.778815 67.2071 1.43459 67.2071 2.22548V5.87896C67.2071 6.66985 67.4133 7.32563 68.3121 7.32563ZM73.7796 11.3669H74.2811C74.5611 11.3669 74.5904 11.1581 74.5904 11.0241V0.510791H73.7796V0.0483398H77.9944V0.510791H77.2281V11.0384C77.2281 11.3218 77.4191 11.3669 77.6265 11.3669H78.0976V11.8293H73.7796V11.3669Z" fill="#E4D8C8" stroke="#E4D8C8" stroke-width="0.250685" stroke-miterlimit="10"/>
<path d="M38.0297 19.3691V18.6232H35.4072V18.0861H43.2617V18.6232H40.8747V19.3537C40.8747 22.381 42.2891 22.8874 44.0573 22.9918V23.5432C41.8614 23.5432 40.0932 22.8567 39.519 20.4708C38.9882 22.9314 36.6751 23.6915 34.9362 23.6618V23.1104C37.3231 23.095 38.0308 21.3803 38.0308 19.3669L38.0297 19.3691ZM36.8075 28.1084C38.9296 28.0194 40.5795 27.1835 40.624 24.902H39.7252V24.4692H43.6004V24.6625C43.6004 26.6606 43.748 28.1369 45.8104 28.1369C46.2966 28.1369 46.8568 27.9733 46.7384 27.2417C46.6798 26.8693 46.8416 26.0938 47.6817 26.0938C48.3894 26.0938 48.6391 26.4662 48.6543 27.1231C48.6695 27.7492 48.1094 28.6587 46.0611 28.6741C44.1453 28.6741 42.8926 27.9887 41.9939 26.4223C40.992 28.2116 38.9871 28.6741 36.8064 28.6884C36.4677 28.6884 35.9956 28.6884 35.6862 28.6587V28.0919C36.0249 28.1073 36.4971 28.1216 36.8064 28.1073L36.8075 28.1084ZM36.8813 16.5812H41.9352V17.1183H36.8813V16.5812ZM48.5664 16.5065V16.9689H47.8V24.0375H45.0885V20.8608H42.7309V20.2489H45.0885V16.9678H44.2788V16.5054H48.5664V16.5065Z" fill="#E4D8C8" stroke="#E4D8C8" stroke-width="0.250685" stroke-miterlimit="10"/>
<path d="M49.6714 27.7657H55.1823V24.3363H57.8938V27.7657H63.2582V28.3171H49.6714V27.7657ZM51.3951 22.113C52.1614 22.113 52.7649 22.7249 52.7649 23.5004C52.7649 23.7245 52.7204 23.9178 52.6325 24.0969C54.4746 23.3367 55.0053 21.0695 54.9902 18.1322V17.237H54.1945V16.8042H57.8341V17.9675C57.8341 22.3965 59.6913 24.0222 62.4017 24.0672V24.7384C59.7933 24.7384 56.9939 23.0083 56.4783 20.8762C55.7413 23.5751 53.1329 24.9174 51.394 24.8878C50.6125 24.8878 50.0241 24.2913 50.0241 23.5015C50.0241 22.7117 50.6135 22.1141 51.394 22.1141L51.3951 22.113Z" fill="#E4D8C8" stroke="#E4D8C8" stroke-width="0.250685" stroke-miterlimit="10"/>
<path d="M77.9206 16.5066V16.969H77.1543V27.4967C77.1543 27.7801 77.3464 27.8251 77.5527 27.8251H78.0238V28.2876H73.632V27.8251H74.1334C74.4135 27.8251 74.4428 27.6164 74.4428 27.4824V26.3784C72.7332 26.9002 68.9167 27.8998 66.2497 27.9141C65.4095 27.9141 65.1295 27.422 65.1295 26.6465V20.6522H68.9753V17.4315H65.0709V16.8801H71.8496V21.2047H68.0038V26.7069C68.0038 26.9002 68.1221 27.0946 68.3718 27.0793C69.8013 27.0342 73.1902 26.1247 74.4428 25.7523V16.969H73.632V16.5066H77.9206Z" fill="#E4D8C8" stroke="#E4D8C8" stroke-width="0.250685" stroke-miterlimit="10"/>
</g>
<defs>
<clipPath id="clip0_706_4965">
<rect width="77.2603" height="30" fill="white" transform="translate(0.869864)"/>
</clipPath>
</defs>
</svg>
