<svg width="70" height="99" viewBox="0 0 70 99" fill="none" xmlns="http://www.w3.org/2000/svg">
<path d="M43.0454 86.6276V51.92H46.0716L48.6363 51.386V98.9087L43.0454 86.6276Z" fill="black" fill-opacity="0.7" stroke="black" stroke-width="0.465909"/>
<g clip-path="url(#clip0_773_484)">
<path d="M34.6568 52.1877C53.634 52.1877 69.0181 44.7153 69.0181 35.4975C69.0181 26.2797 53.634 18.8073 34.6568 18.8073C15.6796 18.8073 0.295532 26.2797 0.295532 35.4975C0.295532 44.7153 15.6796 52.1877 34.6568 52.1877Z" fill="black" fill-opacity="0.7" stroke="black" stroke-width="0.465909" stroke-miterlimit="10"/>
<path d="M48.153 30.685L45.9195 4.82919C45.9195 2.3105 40.8795 0.267334 34.6614 0.267334C28.4432 0.267334 23.4032 2.3105 23.4032 4.82919L21.1698 30.685C21.1425 30.8522 21.1243 31.0194 21.1243 31.1918C21.1243 34.8235 27.1832 37.7655 34.6614 37.7655C42.1395 37.7655 48.1984 34.8235 48.1984 31.1918C48.1984 31.0246 48.1803 30.8522 48.153 30.685Z" fill="black" fill-opacity="0.6" stroke="black" stroke-width="0.465909" stroke-miterlimit="10"/>
</g>
<defs>
<clipPath id="clip0_773_484">
<rect width="68.9546" height="52.1818" fill="white" transform="translate(0.181763 0.135986)"/>
</clipPath>
</defs>
</svg>
