<svg width="12" height="13" viewBox="0 0 12 13" fill="none" xmlns="http://www.w3.org/2000/svg">
<path d="M10.3114 3.09361L6.56143 2.06236C6.50544 2.04696 6.4463 2.04376 6.38872 2.05304C6.33115 2.06231 6.27674 2.08379 6.22983 2.11577C6.18292 2.14775 6.14482 2.18933 6.11857 2.23721C6.09231 2.28508 6.07863 2.33792 6.07861 2.39151V7.0433C5.69457 6.72843 5.20426 6.54392 4.68964 6.52061C4.17502 6.49731 3.66726 6.63661 3.25123 6.91525C2.8352 7.19389 2.5361 7.59498 2.40391 8.05149C2.27173 8.50799 2.31448 8.99226 2.52501 9.42334C2.73554 9.85443 3.1011 10.2062 3.5606 10.4199C4.02009 10.6336 4.54567 10.6963 5.04951 10.5974C5.55335 10.4986 6.00492 10.2442 6.32874 9.87683C6.65256 9.50945 6.82901 9.05132 6.82861 8.57901V4.91592L10.0958 5.8144C10.1518 5.8298 10.2109 5.833 10.2685 5.82372C10.3261 5.81445 10.3805 5.79297 10.4274 5.76099C10.4743 5.72902 10.5124 5.68743 10.5387 5.63956C10.5649 5.59168 10.5786 5.53884 10.5786 5.48526V3.42276C10.5786 3.34885 10.5526 3.27693 10.5045 3.21764C10.4563 3.15835 10.3886 3.11486 10.3114 3.09361Z" fill="#36312E"/>
</svg>
