<svg width="20" height="20" viewBox="0 0 20 20" fill="none" xmlns="http://www.w3.org/2000/svg">
<path d="M18.125 16.25C18.125 16.4158 18.0592 16.5747 17.9419 16.6919C17.8247 16.8092 17.6658 16.875 17.5 16.875H2.5C2.33424 16.875 2.17527 16.8092 2.05806 16.6919C1.94085 16.5747 1.875 16.4158 1.875 16.25C1.875 16.0842 1.94085 15.9253 2.05806 15.8081C2.17527 15.6908 2.33424 15.625 2.5 15.625H17.5C17.6658 15.625 17.8247 15.6908 17.9419 15.8081C18.0592 15.9253 18.125 16.0842 18.125 16.25ZM18.125 4.375V13.125C18.125 13.4565 17.9933 13.7745 17.7589 14.0089C17.5245 14.2433 17.2065 14.375 16.875 14.375H3.125C2.79348 14.375 2.47554 14.2433 2.24112 14.0089C2.0067 13.7745 1.875 13.4565 1.875 13.125V4.375C1.875 4.04348 2.0067 3.72554 2.24112 3.49112C2.47554 3.2567 2.79348 3.125 3.125 3.125H16.875C17.2065 3.125 17.5245 3.2567 17.7589 3.49112C17.9933 3.72554 18.125 4.04348 18.125 4.375ZM12.8125 8.75C12.8125 8.64958 12.7882 8.55064 12.7419 8.46156C12.6955 8.37249 12.6283 8.2959 12.5461 8.23828L9.42109 6.05078C9.32745 5.98518 9.21761 5.94653 9.10352 5.93902C8.98943 5.93152 8.87547 5.95545 8.77404 6.00822C8.67261 6.06099 8.5876 6.14057 8.52827 6.2383C8.46893 6.33603 8.43753 6.44817 8.4375 6.5625V10.9375C8.43753 11.0518 8.46893 11.164 8.52827 11.2617C8.5876 11.3594 8.67261 11.439 8.77404 11.4918C8.87547 11.5445 8.98943 11.5685 9.10352 11.561C9.21761 11.5535 9.32745 11.5148 9.42109 11.4492L12.5461 9.26172C12.6283 9.2041 12.6955 9.12751 12.7419 9.03844C12.7882 8.94936 12.8125 8.85042 12.8125 8.75Z" fill="#4D282C"/>
</svg>
